<?xml version="1.0" encoding="utf-8"?>
<!-- Generator: Adobe Illustrator 26.1.0, SVG Export Plug-In . SVG Version: 6.00 Build 0)  -->
<svg version="1.1" id="Layer_1" xmlns="http://www.w3.org/2000/svg" xmlns:xlink="http://www.w3.org/1999/xlink" x="0px" y="0px"
	 viewBox="0 0 300 300" style="enable-background:new 0 0 300 300;" xml:space="preserve">
<style type="text/css">
	.st0{fill:#212529;}
	.st1{fill:#F1F1F1;}
	.st2{fill:#939599;}
	.st3{fill:none;stroke:#F07B35;stroke-width:6;stroke-miterlimit:10;}
	.st4{fill:#2A2550;}
	.st5{fill:#FE6A08;}
	.st6{fill:#FAF8F6;}
	.st7{fill:#F07B35;}
	.st8{fill:#FCFCFC;}
</style>
<rect x="-246.8" y="-197.9" class="st0" width="300" height="100.9"/>
<path class="st1" d="M106.5,153.1c0.1-0.1,0.2-0.3,0.3-0.4c0,0.1,0,0.2,0,0.2C106.7,153,106.6,153,106.5,153.1
	C106.5,153,106.5,153.1,106.5,153.1z"/>
<path class="st2" d="M88.6-256c-1.3-0.6-2.7-1.2-2.3-3.2c1.7,0.1,2.4,1.3,3,2.6C89-256.4,88.8-256.2,88.6-256z"/>
<path class="st2" d="M89.8-255.2c-0.4-0.3-0.8-0.5-1.2-0.8c0.2-0.2,0.4-0.4,0.6-0.6c0.3,0.3,0.7,0.6,1,1
	C90.1-255.5,90-255.3,89.8-255.2z"/>
<g>
	<path class="st3" d="M-46.3,20c0.6,2.1-0.6,3.3-2.8,4c-4.9,1.6-5.9,5.9-7,10.2c-0.3,1.1,0.3,1.5,1.2,2c3.5,1.9,3.9,4,1.3,7.2
		c-3.3,4-7.5,6.9-12.4,8.6c-2.2,0.8-3.5,2.1-4.9,3.8c-2.3,2.7-4.2,6.1-8.2,6.9c-4.3,0.9-7.3-1.2-7.4-5.7c0-2.6-0.7-4.1-3.6-3
		c-1.5,0.6-2.5,0.3-3.2-1.1c-1-2.1-2.1-2.1-3.8-0.7c-1.6,1.3-3.3,2.4-4.5,4.2c-2.1,2.9-7.5,3.9-10.5,1.9c-2-1.3-2.9,0.7-4,1.1
		c-3.2,1.4-4.5,1.1-6.4-2.4c-2.3-4.2-5.4-8-7.4-12.4c-0.7-1.5-1.6-0.5-1.9,0.2c-2.3,4.8-7,1.7-10.3,3.1c-0.2,0.1-0.6-0.2-0.7-0.3
		c-0.4-3.1-1.8-6.6-0.8-9.2c1-2.8,1.9-5.6,2.3-8.4c0.3-2.2-0.8-4.3-3.8-4.1c-2.6,0.2-5.1-0.3-7.5-1.3c-6.7-2.5-5.2-6.3-1.6-9.3
		c3.3-2.7,6.1-4.8,5.8-9.5c-0.1-1.2,0.8-2.9,2.4-3.2c1.3-0.3,1.9,1.1,2.7,1.9c6.2,5.5,12.3,11,18.5,16.4c3,2.6,6.1,5.1,7.8,8.9
		c1.1,2.6,3.3,4,6.3,3c2-0.7,3.7-0.2,5.5,0.7c6.2,3.1,7.3,2.9,12.2-1.8c6.1-5.8,6.1-5.8,13.7-1.9c6.2,3.2,8.8,2.6,12.8-3
		c0.9-1.2,2.1-2.5,2.4-3.9c1.5-6.3,6.3-9.1,11.4-11.9c2.9-1.6,5-0.6,5.5,2.5c0.2,1.5,0.5,3.1,0.7,4.6C-46.3,18.7-46.3,19.2-46.3,20z
		"/>
	<path class="st3" d="M-64.7,18.4c-0.4,1.2-0.7,2.5-1.4,3.6c-4.6,8.4-5.9,8.7-14.6,4.6c-6.7-3.2-7.3-3.1-12.4,2
		c-5.8,5.9-9.7,5.7-15.4-0.4c-1.3-1.5-2.9-2.5-4.8-3.2c-6.9-2.7-11.5-6-17.4-12.7c2.5,0,3.4-1.5,3.9-3.5c0.2-0.8,0.6-2.1,1.6-2
		c3.5,0.3,3-2.4,3.3-4.4c0.3-1.6,0.1-3.4,0.4-5c0.6-4.3,2.1-8,7-9.1c0.7-0.2,1.5-0.5,2.1-0.9c3.9-2.4,6.2-1.4,7.4,3
		c0.5,1.8,0.3,4.5,3.6,3.8c3.2-0.7,2.2-2.9,1.6-4.9c-0.4-1.1-0.6-2.4,0.3-3.3c1.7-1.8,2.2-3.7,1.4-6c-0.1-0.3-0.1-0.8,0-1.1
		c0.5-2.3,6.5-7.1,8.8-7.2c1.1-0.1,2-0.1,2.8,0.9c2.1,2.4,4.8,1.9,7.3,1.2c3.4-1,6.3,0,8.5,2.2c2.1,2.1,2.4,5.1,1.6,7.9
		c-0.7,2.6-2.1,5.1,2.4,6c1.7,0.3,2,2.8,1.4,4.7c-0.3,0.9-1.2,2.1,0.3,2.6c3.1,1,1.9,3.2,1.9,5.3c0.1,4.6-0.9,8.5-4.3,12
		c-1.9,2-0.6,3.5,2.1,3.6C-64.9,18.1-64.8,18.3-64.7,18.4z"/>
	<path class="st3" d="M-109.4,30.9c-3.2,2-5.3,1-6.8-1.9c-0.3-0.6-1.1-1.3-0.3-2c0.6-0.6,1.5-0.3,2.2-0.1
		C-112.3,27.6-110.7,28.9-109.4,30.9z"/>
	<path class="st3" d="M-65,18c0.2-0.2,0.5-0.5,0.5-0.4c0.5,0.3,0.2,0.6-0.1,0.8C-64.8,18.3-64.9,18.1-65,18z"/>
</g>
<g id="ueqM2p_00000116938026297260211750000000191446704739167397_">
	<g>
		<path class="st0" d="M176.1-127.5c0.6,2.1-0.6,3.3-2.8,4c-4.9,1.6-5.9,5.9-7,10.2c-0.3,1.1,0.3,1.5,1.2,2c3.5,1.9,3.9,4,1.3,7.2
			c-3.3,4-7.5,6.9-12.4,8.6c-2.2,0.8-3.5,2.1-4.9,3.8c-2.3,2.7-4.2,6.1-8.2,6.9c-4.3,0.9-7.3-1.2-7.4-5.7c0-2.6-0.7-4.1-3.6-3
			c-1.5,0.6-2.5,0.3-3.2-1.1c-1-2.1-2.1-2.1-3.8-0.7c-1.6,1.3-3.3,2.4-4.5,4.2c-2.1,2.9-7.4,3.9-10.5,1.9c-2-1.3-2.9,0.7-4,1.1
			c-3.2,1.4-4.5,1.1-6.4-2.4c-2.3-4.2-5.4-8-7.4-12.4c-0.7-1.5-1.6-0.5-1.9,0.2c-2.3,4.8-7,1.7-10.3,3.1c-0.2,0.1-0.6-0.2-0.7-0.3
			c-0.4-3.1-1.8-6.6-0.8-9.2c1-2.8,1.9-5.6,2.3-8.4c0.3-2.2-0.8-4.3-3.8-4.1c-2.6,0.2-5.1-0.3-7.5-1.3c-6.8-2.6-5.3-6.5-1.7-9.4
			c3.3-2.7,6.1-4.8,5.8-9.5c-0.1-1.2,0.8-2.9,2.4-3.2c1.3-0.3,1.9,1.1,2.7,1.9c6.2,5.5,12.3,11,18.5,16.4c3,2.6,6.1,5.1,7.8,8.9
			c1.1,2.6,3.3,4,6.3,3c2-0.7,3.7-0.2,5.5,0.7c6.2,3.1,7.3,2.9,12.2-1.8c6.1-5.8,6.1-5.8,13.7-1.9c6.2,3.2,8.8,2.6,12.8-3
			c0.9-1.2,2.1-2.5,2.4-3.9c1.5-6.3,6.3-9.1,11.4-11.9c2.9-1.6,5-0.6,5.5,2.5c0.2,1.5,0.5,3.1,0.7,4.6
			C176.1-128.8,176.1-128.3,176.1-127.5z"/>
		<path class="st0" d="M157.7-129.2c-0.4,1.2-0.7,2.5-1.4,3.6c-4.6,8.4-5.9,8.7-14.6,4.6c-6.7-3.2-7.3-3.1-12.4,2
			c-5.8,5.9-9.7,5.7-15.4-0.4c-1.3-1.5-2.9-2.5-4.8-3.2c-6.9-2.7-11.5-6-17.4-12.7c2.5,0,3.4-1.5,3.9-3.5c0.2-0.8,0.6-2.1,1.6-2
			c3.5,0.3,3-2.4,3.3-4.4c0.3-1.6,0.1-3.4,0.4-5c0.6-4.3,2.1-8,7-9.1c0.7-0.2,1.5-0.5,2.1-0.9c3.9-2.4,6.2-1.4,7.4,3
			c0.5,1.8,0.3,4.5,3.6,3.8c3.2-0.7,2.2-2.9,1.6-4.9c-0.4-1.1-0.6-2.4,0.3-3.3c1.7-1.8,2.2-3.7,1.4-6c-0.1-0.3-0.1-0.8,0-1.1
			c0.5-2.3,6.5-7.1,8.8-7.2c1.1-0.1,2-0.1,2.8,0.9c2.1,2.4,4.8,1.9,7.3,1.2c3.4-1,6.3,0,8.5,2.2c2.1,2.1,2.4,5.1,1.6,7.9
			c-0.7,2.6-2.1,5.1,2.4,6c1.7,0.3,2,2.8,1.4,4.7c-0.3,0.9-1.2,2.1,0.3,2.6c3.1,1,1.9,3.2,1.9,5.3c0.1,4.6-0.9,8.5-4.3,12
			c-1.9,2-0.6,3.5,2.1,3.6C157.5-129.4,157.6-129.3,157.7-129.2z"/>
		<path class="st4" d="M113-116.7c-3.2,2-5.3,1-6.8-1.9c-0.3-0.6-1.1-1.3-0.3-2c0.6-0.6,1.5-0.3,2.2-0.1
			C110.1-120,111.7-118.7,113-116.7z"/>
		<path class="st4" d="M157.4-129.6c0.2-0.2,0.5-0.5,0.5-0.4c0.5,0.3,0.2,0.6-0.1,0.8C157.6-129.3,157.5-129.4,157.4-129.6z"/>
	</g>
</g>
<g>
	<path class="st5" d="M5.6,162.3c0-17.7-2.5-31.3,7.8-43.6c14-17.3,37.4-19.7,51.8-2.9c5.8,6.6,11.5,9.5,20.2,8.6
		c21-1.6,30.9,4.9,35.8,25.1c2.5,10.3,7.8,11.1,16,8.2c21.8-7.8,37.8-21.8,42.4-45.7c3.3-19.7,3.3-39.9,10.3-59.2
		c1.6-4.5-1.2-7.8-4.5-10.7c-8.2-7.4-10.7-15.6-4.9-25.5c6.2-10.3,16.5-11.5,26.3-7.8c6.2,2.5,10.3,3.3,16-0.4
		c3.3-2.5,8.2-1.2,11.9,0c18.1,5.8,39.5,7.8,35,36.6c-1.6,10.7,8.6,18.5,17.3,24.7c10.7,7.8,11.1,12.8,1.2,21.4
		c-9.9,8.6-12.8,19.3-12.8,31.7c0,21.4,2.5,42.8-1.2,64.2c-9.5,58-62.9,102-122.6,105.7c-28.8,1.6-56.8-3.3-82.7-14.8
		c-25.9-11.5-43.2-32.1-51.4-59.2C10.9,199.3,1.9,179.6,5.6,162.3z M239.2,218.3c7.8-9.5,9.9-18.5,11.1-28.4
		c5.3-40.7,1.6-81.9,2.1-123c0-12.8-7-19.3-18.9-21c-12.8-1.6-21.4,4.5-23.9,16.9c-1.6,7-2.5,14.4-3.3,21.4
		c-2.5,17.3-4.5,34.1-13.6,50.2c-12.3,22.2-28.8,37.4-53.5,43.6c-29.6,7.4-32.1,5.8-36.6-23.4c-1.2-6.6-4.1-11.1-11.1-11.9
		c-6.6-0.8-11.5,1.6-14.4,8.2c-0.8,1.6-1.2,3.3-1.6,5.3c-2.1,6.6-7.4,7.8-12.8,7.4c-6.2-0.4-8.2-4.9-8.2-10.7c0-5.3,0.4-11.1,0-16.5
		c-0.8-8.2-4.9-14-14-13.6c-8.6,0.4-12.8,5.8-12.8,14.4c0,15.2-0.8,30,0.4,45.3c2.9,29.2,12.8,55.9,39.5,71.2
		c44.4,25.1,90.5,24.3,136.6,2.1c14-7,18.1-15.6,15.6-31.3c-3.3-20.2-9.9-27.2-30-30.9c-6.6-1.2-12.3-2.9-10.7-10.7
		c1.2-7.4,7-8.2,13.6-7.8c19.7,1.6,33.7,10.7,41.1,29.2C235.5,208.8,236.8,212.5,239.2,218.3z"/>
	<path class="st6" d="M239.2,218.3c-2.5-5.8-4.1-9.5-5.8-13.2c-7.8-18.1-21.4-27.6-41.1-29.2c-6.6-0.4-12.3,0.4-13.6,7.8
		c-1.2,7.8,4.1,9.9,10.7,10.7c20.2,3.7,27.2,10.7,30,30.9c2.5,15.6-1.6,24.3-15.6,31.3c-45.7,22.2-91.7,23-136.6-2.1
		c-26.7-15.2-37-42-39.5-71.2c-1.2-14.8-0.4-30-0.4-45.3c0-8.6,4.1-14,12.8-14.4c9.1-0.4,13.2,4.9,14,13.6c0.4,5.3,0,11.1,0,16.5
		c0,5.8,2.1,10.3,8.2,10.7c5.8,0.4,11.1-0.8,12.8-7.4c0.4-1.6,0.8-3.7,1.6-5.3c2.5-6.6,7.4-9.1,14.4-8.2c7,0.8,9.9,5.3,11.1,11.9
		c4.9,28.8,7.4,30.4,36.6,23.4c24.7-6.2,41.1-21.4,53.5-43.6c9.1-16,10.7-32.9,13.6-50.2c1.2-7.4,1.6-14.4,3.3-21.4
		c2.9-12.8,11.1-18.5,23.9-16.9c11.9,1.6,19.3,8.2,18.9,21c-0.4,41.1,2.9,81.9-2.1,123C249.1,199.8,247,208.8,239.2,218.3z
		 M229.8,85c5.8-0.8,9.5-3.7,9.5-9.5c0-7-4.1-10.3-10.3-9.9c-6.6,0-9.9,4.5-9.5,10.7C220.3,82.5,224.4,84.6,229.8,85z"/>
	<path class="st5" d="M229.8,85c-5.3-0.4-9.9-2.5-10.3-8.6c-0.4-6.6,2.9-10.7,9.5-10.7c6.2,0,10.3,3.3,10.3,9.9
		C239.6,81.7,235.9,84.6,229.8,85z"/>
</g>
<text transform="matrix(1 0 0 1 -174.6476 -118.8592)" class="st8" style="font-family:'YANGJIN'; font-size:36.9661px;">서울치킨대통합</text>
<g>
	<path class="st7" d="M-149.1-111.6c-1.7,0-3-0.7-3.8-2c-0.8,1-2.1,1.6-3.6,1.6h-2.8c-2.4,0-4.2-1.5-4.5-3.6c-0.3,2.2-2,3.6-4.4,3.6
		h-2.8c-2.7,0-4.6-1.9-4.6-4.5c-0.1-13,0.7-24.2,2.5-33.2v-0.2c0.6-2.3,2.4-3.8,4.7-3.8h2.7c1.9,0,3,0.8,3.6,1.6
		c0.3,0.4,0.8,1.2,0.8,2.2c1.7,0.4,3.1,1.2,4.3,2.5c0.8-0.7,1.8-1.1,3-1.1h0.4v-1.6c0-2.5,1.9-4.3,4.5-4.3h3c2.6,0,4.4,1.8,4.4,4.3
		v34.4c0,2-1.4,4.2-4.5,4.2L-149.1-111.6L-149.1-111.6z"/>
	<path class="st8" d="M-164.3-149.2c-0.1,0.7-0.2,1.4-0.3,2.1c6.5-0.9,9.7,5.7,9.7,19.7v11.1c0,0.9-0.5,1.4-1.5,1.4h-2.8
		c-1,0-1.6-0.5-1.6-1.4v-11.4c0-9.8-1.6-14-4.7-12.8c-0.9,8-1.3,16.1-1.2,24.1c0,1-0.5,1.4-1.6,1.4h-2.8c-1,0-1.6-0.5-1.6-1.5
		c-0.1-12.9,0.7-23.8,2.4-32.7c0.3-1,0.9-1.6,1.8-1.6h2.7C-164.5-150.7-164-150.2-164.3-149.2z M-150.5-145.5v-4.6
		c0-0.9,0.5-1.3,1.5-1.3h3c0.9,0,1.4,0.4,1.4,1.3v34.4c0,0.8-0.5,1.2-1.5,1.2h-3c-0.9,0-1.4-0.4-1.4-1.3v-23.9h-3.3
		c-1,0-1.4-0.4-1.4-1.3v-3.1c0-0.9,0.5-1.4,1.4-1.4H-150.5z"/>
	<path class="st7" d="M-138.4-111.6c-3.2,0-4.7-2.2-4.7-4.3v-6.6c0-0.7,0.2-1.4,0.5-2c-0.3-0.6-0.5-1.3-0.5-2.1v-1.4
		c0-0.8,0.2-1.6,0.5-2.3c-0.4-0.7-0.6-1.5-0.6-2.4v-1.9c0-1.7,0.8-3.1,2-3.9c-0.4-0.5-0.8-1.1-1.1-1.7c-0.6-1.3-0.9-2.8-0.9-4.4
		s0.3-3.2,0.9-4.5c0.7-1.5,1.9-2.7,3.5-3.6c1.4-0.8,3.1-1.3,5.2-1.7c1.9-0.3,4.4-0.5,7.2-0.5c2.9,0,5.2,0.2,7.2,0.5
		c2.2,0.4,3.9,0.9,5.2,1.7c1.6,0.9,2.7,2.1,3.4,3.6c0.6,1.3,0.9,2.8,0.9,4.4c0,1.7-0.3,3.2-0.9,4.5c-0.3,0.6-0.6,1.1-1.1,1.6
		c1.2,0.8,2,2.1,2,3.7v2.1c0,0.9-0.2,1.6-0.5,2.3c0.4,0.6,0.6,1.4,0.6,2.2v6.5c0,0.8-0.2,1.4-0.5,2c0.3,0.6,0.5,1.3,0.5,2v1.3
		c0,2.7-1.8,4.6-4.4,4.6h-24.4V-111.6z"/>
	<path class="st8" d="M-126.3-151.8c2.7,0,4.9,0.1,6.7,0.4c1.8,0.3,3.2,0.8,4.2,1.4s1.8,1.4,2.2,2.3c0.4,0.9,0.6,2,0.6,3.2
		c0,1.2-0.2,2.3-0.6,3.2c-0.4,0.9-1.2,1.7-2.2,2.3c-1.1,0.6-2.5,1.1-4.2,1.3c-1.8,0.3-3.9,0.4-6.6,0.4s-5-0.1-6.7-0.4
		c-1.8-0.3-3.2-0.7-4.3-1.3c-1.1-0.6-1.8-1.4-2.2-2.3c-0.4-0.9-0.6-2-0.6-3.2c0-1.2,0.2-2.3,0.6-3.2c0.4-0.9,1.2-1.7,2.2-2.3
		c1.1-0.6,2.5-1.1,4.3-1.4C-131.3-151.7-129-151.8-126.3-151.8z M-138.6-125.3c-1,0-1.5-0.4-1.5-1.3v-1.4c0-1,0.5-1.5,1.4-1.5h9.2
		v-1.6h-9.1c-1.1,0-1.6-0.5-1.6-1.6v-1.9c0-1.1,0.5-1.6,1.6-1.6h24.5c0.9,0,1.4,0.5,1.4,1.4v2.1c0,1.1-0.5,1.6-1.5,1.6h-9.5v1.6h9.5
		c1,0,1.6,0.4,1.6,1.3v6.5c0,0.9-0.5,1.3-1.6,1.3h-20.2v1.5h20.3c1,0,1.4,0.4,1.4,1.3v1.3c0,1.1-0.5,1.6-1.4,1.6h-24.4
		c-1.1,0-1.7-0.4-1.7-1.3v-6.6c0-0.9,0.5-1.3,1.6-1.3h20.1v-1.5L-138.6-125.3L-138.6-125.3z M-126.3-142.1c1.5,0,2.7,0,3.7-0.1
		s1.8-0.3,2.4-0.5s1.1-0.5,1.3-0.8c0.3-0.3,0.4-0.7,0.4-1.1c0-0.4-0.1-0.8-0.4-1.1c-0.2-0.3-0.7-0.6-1.3-0.8
		c-0.6-0.2-1.4-0.4-2.4-0.5c-1-0.1-2.3-0.2-3.8-0.2s-2.7,0.1-3.7,0.2c-1,0.1-1.8,0.3-2.5,0.5c-0.6,0.2-1.1,0.5-1.3,0.8
		c-0.3,0.3-0.4,0.7-0.4,1.1c0,0.4,0.1,0.8,0.4,1.1c0.3,0.3,0.7,0.5,1.3,0.8c0.6,0.2,1.4,0.4,2.5,0.5
		C-129-142.2-127.8-142.1-126.3-142.1z"/>
	<path class="st7" d="M-86-111.6c-1.3,0-2.4-0.4-3.3-1.2c-0.7,0.5-1.6,0.7-2.6,0.7h-2.6c-2.7,0-4.6-1.8-4.6-4.4v-6.4
		c0-2.5-0.1-4.4-0.3-5.8c-0.2,4.1-0.3,8.2-0.3,12.2c0,2.6-1.9,4.5-4.6,4.5h-2.5c-2.7,0-4.6-1.9-4.6-4.5c-0.1-9.6,0.4-18.3,1.4-25.9
		c-1.1-0.7-1.8-2-1.8-3.7v-2.6c0-2.5,1.8-4.3,4.4-4.3h1.1c0.7-1.3,2-2.1,3.7-2.1h3.6c1.6,0,2.9,0.8,3.6,2.1h3.7
		c0.7,0,1.3,0.1,1.9,0.3c0.8-1.1,2.2-1.8,3.8-1.8h2.6c2.9,0,4.8,1.8,4.8,4.6v33.7c0,2.7-1.9,4.6-4.7,4.6L-86-111.6L-86-111.6z
		 M-91.8-141.8c0.4,0.5,0.7,1,1,1.5v-1.6C-91-141.8-91.4-141.8-91.8-141.8L-91.8-141.8z"/>
	<path class="st8" d="M-100.8-144.8l-0.3,2.7c7.1-1.5,10.7,5,10.7,19.6v6.1c0,0.9-0.5,1.4-1.5,1.4h-2.6c-1,0-1.6-0.5-1.6-1.4v-6.4
		c0-10.4-1.9-14.5-5.8-12.5c-0.6,6.4-0.8,12.7-0.8,18.9c0,1-0.5,1.4-1.6,1.4h-2.5c-1,0-1.6-0.5-1.6-1.5c-0.1-10.7,0.5-20.1,1.8-28.3
		h-1c-0.8,0-1.2-0.4-1.2-1.3v-2.6c0-0.9,0.5-1.3,1.4-1.3h3.6v-0.9c0-0.8,0.4-1.1,1.2-1.1h3.6c0.7,0,1.1,0.4,1.1,1.1v0.9h6.2
		c1,0,1.5,0.4,1.5,1.3v2.4c0,1-0.5,1.5-1.5,1.5H-100.8z M-87.7-149.8c0-1.1,0.6-1.6,1.7-1.6h2.6c1.2,0,1.8,0.5,1.8,1.6v33.7
		c0,1.1-0.6,1.6-1.7,1.6H-86c-1.1,0-1.7-0.5-1.7-1.6L-87.7-149.8L-87.7-149.8z"/>
	<path class="st7" d="M-75.3-111.6c-2.7,0-4.7-1.9-4.7-4.6v-8.4c0-1.2,0.4-2.2,1.1-3c0-0.1-0.1-0.1-0.1-0.2
		c-0.3-0.8-0.8-2.8,1.4-4.8l0.1-0.1l0.1-0.1c0.5-0.4,1-0.8,1.4-1.2l0,0c-2.5,0-4.3-1.8-4.3-4.3v-2.6c0-1.1,0.4-2.1,1-2.9
		c-0.9-0.8-1.4-1.9-1.4-3.3v-2.6c0-2.6,1.8-4.3,4.3-4.3H-61c0.7,0,1.4,0.2,2,0.5c0.8-0.8,1.9-1.2,3.2-1.2h3.1c2.6,0,4.5,1.8,4.5,4.4
		v20.4c0,2.6-1.9,4.4-4.5,4.4h-3c-2.6,0-4.5-1.8-4.5-4.4v-6.5c-1.6,3.5-3.8,6.4-6.6,8.7c-0.5,0.5-1,0.9-1.6,1.3
		c0.2,0.5,0.3,1,0.3,1.6v1.7h15.8c2.6,0,4.5,1.8,4.5,4.3v2.8c0,2.6-1.8,4.4-4.5,4.4H-75.3z"/>
	<path class="st8" d="M-61-150.8c0.8,0,1.1,0.6,1,1.7c-0.8,8.7-3.8,15.2-8.9,19.4c-0.8,0.9-1.8,1.4-3,1.4h-2.9
		c-0.8,0-1.2-0.2-1.4-0.6s0.1-0.8,0.6-1.3c2.7-2,4.7-4.2,6.1-6.5H-76c-0.8,0-1.3-0.4-1.3-1.3v-2.6c0-0.9,0.4-1.3,1.3-1.3h8.6
		c0.2-0.8,0.3-1.7,0.4-2.6c0.1-0.6-0.1-1-0.7-1h-8.7c-0.8,0-1.3-0.4-1.3-1.3v-2.6c0-0.9,0.4-1.3,1.3-1.3H-61L-61-150.8L-61-150.8z
		 M-52.3-119.9c1,0,1.5,0.4,1.5,1.3v2.6c0,1-0.5,1.4-1.5,1.4h-23c-1.1,0-1.7-0.5-1.7-1.6v-8.4c0-1,0.5-1.4,1.5-1.4h3
		c0.9,0,1.4,0.4,1.4,1.3v4.7L-52.3-119.9L-52.3-119.9z M-51.2-129.7c0,0.9-0.5,1.4-1.5,1.4h-3c-1,0-1.5-0.5-1.5-1.4v-20.5
		c0-0.8,0.5-1.3,1.4-1.3h3.1c1,0,1.5,0.5,1.5,1.4V-129.7z"/>
	<path class="st7" d="M-21-111.6c-0.9,0-1.7-0.2-2.4-0.6c-0.7,0.4-1.5,0.6-2.4,0.6h-2.6c-1.7,0-3.1-0.8-3.8-2.2
		c-4.5,0.9-9,1.4-13.3,1.4c-2.5,0-4.3-1.7-4.3-4v-33c0-2.5,1.9-4.3,4.6-4.3h11.9c0.7,0,1.3,0.1,1.9,0.4c0.8-0.7,1.8-1.1,3.1-1.1h2.6
		c0.9,0,1.7,0.2,2.3,0.6c0.7-0.4,1.5-0.6,2.4-0.6h2.6c2.5,0,4.3,1.8,4.3,4.3v34.1c0,2.6-1.8,4.4-4.4,4.4H-21z M-38-124.1
		c1.8-0.2,3.6-0.6,5.4-1.1v-17.4c-0.2,0-0.5,0-0.7,0H-38V-124.1z"/>
	<path class="st8" d="M-31.8-149.3v2.3c0,1-0.5,1.5-1.5,1.5H-41v24.6c3.8-0.1,7.7-0.8,11.4-2.1v-27.2c0-0.9,0.5-1.3,1.4-1.3h2.6
		c0.9,0,1.3,0.4,1.3,1.2v8.6h2v-8.5c0-0.9,0.5-1.3,1.4-1.3h2.6c0.9,0,1.3,0.4,1.3,1.3v34.2c0,0.9-0.5,1.4-1.4,1.4h-2.5
		c-0.9,0-1.4-0.5-1.4-1.4v-20h-2v20c0,0.9-0.5,1.4-1.4,1.4h-2.6c-0.9,0-1.3-0.4-1.3-1.3v-1.5c-5.4,1.3-10.7,2-15.9,2
		c-0.8,0-1.3-0.3-1.3-1v-33c0-0.9,0.5-1.3,1.6-1.3h11.9C-32.3-150.7-31.8-150.3-31.8-149.3z"/>
	<path class="st7" d="M1-111.2c-2.8,0-5.1-0.1-7-0.4c-2.1-0.3-3.8-0.8-5.1-1.5c-1.6-0.8-2.8-2-3.5-3.4c-0.6-1.3-0.9-2.7-0.9-4.4
		c0-1.6,0.3-3.1,0.9-4.3c0.2-0.5,0.5-1,0.9-1.5c-1.1-0.8-1.8-2.1-1.8-3.8v-1.8c0-0.9,0.2-1.6,0.5-2.3c-0.4-0.7-0.5-1.4-0.5-2.2
		v-13.4c0-2.1,1.4-4.3,4.6-4.3h24c2.6,0,4.4,1.8,4.4,4.4v2.1c0,0.9-0.2,1.7-0.7,2.4c0.2,0.5,0.3,1.1,0.3,1.7v1.3
		c0,0.6-0.1,1.1-0.3,1.6c0.4,0.7,0.6,1.5,0.6,2.3v2c0,0.8-0.2,1.6-0.5,2.3c0.3,0.6,0.5,1.4,0.5,2.2v2c0,1.6-0.7,2.8-1.8,3.6
		c0.4,0.5,0.7,1,0.9,1.5c0.6,1.3,0.9,2.7,0.9,4.4c0,1.7-0.3,3.2-1,4.4c-0.7,1.4-1.9,2.5-3.5,3.3c-1.3,0.7-3,1.2-5.1,1.5
		C6-111.3,3.7-111.2,1-111.2z"/>
	<path class="st8" d="M-11.2-128.9c-0.9,0-1.3-0.5-1.3-1.6v-1.8c0-1,0.5-1.5,1.5-1.6h8.8v-1.5h-8.6c-1.2,0-1.8-0.5-1.8-1.4v-13.4
		c0-0.8,0.5-1.3,1.6-1.3h24c0.9,0,1.4,0.5,1.4,1.4v2.1c0,0.8-0.5,1.3-1.4,1.3H-6.7v1.6h19.5c0.8,0,1.3,0.4,1.3,1.3v1.3
		c0,0.8-0.4,1.2-1.3,1.2H-6.7v1.3H13c0.9,0,1.4,0.4,1.4,1.3v2c0,1-0.5,1.5-1.4,1.5H3.7v1.5h9.1c1.1,0,1.6,0.5,1.6,1.5v2
		c0,0.9-0.5,1.4-1.5,1.4h-24.1L-11.2-128.9L-11.2-128.9z M1-127.7c2.7,0,4.9,0.1,6.6,0.4c1.7,0.3,3.1,0.7,4.1,1.2s1.7,1.3,2.1,2.1
		c0.4,0.9,0.6,1.9,0.6,3.1s-0.2,2.2-0.7,3c-0.4,0.8-1.2,1.5-2.2,2.1c-1,0.5-2.4,0.9-4.1,1.2c-1.7,0.3-3.9,0.4-6.5,0.4
		s-4.8-0.1-6.6-0.4s-3.1-0.7-4.2-1.2c-1-0.5-1.8-1.2-2.2-2.1s-0.6-1.9-0.6-3c0-1.2,0.2-2.2,0.6-3.1c0.4-0.9,1.1-1.6,2.1-2.1
		s2.4-1,4.2-1.2C-3.9-127.6-1.7-127.7,1-127.7z M1-118.7c2.7,0,4.7-0.1,5.9-0.4s1.8-0.9,1.8-1.7c0-0.9-0.6-1.5-1.8-1.8
		s-3.2-0.5-6-0.5c-2.7,0-4.7,0.2-6,0.5s-1.9,0.9-1.9,1.8s0.6,1.4,1.9,1.7C-3.7-118.9-1.7-118.7,1-118.7z"/>
	<path class="st7" d="M20.9-111.6c-3.1,0-4.5-2.2-4.5-4.2v-11.7c0-1.2,0.5-2.5,1.5-3.3c-1.6-2.1-1.9-4.5-1.9-6c0-1,0.1-2,0.4-2.9
		c-0.5-0.7-0.8-1.6-0.8-2.8v-2.5c0-2.4,1.3-3.8,2.9-4.3v-1.4c0-2.5,1.8-4.3,4.4-4.3H33c1.8,0,3.3,0.9,3.9,2.4c0.7-1.1,2-1.8,3.6-1.8
		h3.2c2.6,0,4.4,1.8,4.4,4.3v3.3c2,0.3,3.4,1.9,3.4,4.2v3.4c0,2.2-1.4,3.8-3.4,4.1v3.5c0,0.4,0,0.7-0.1,1c0.9,0.8,1.3,1.9,1.3,3
		v11.4c0,2.8-1.9,4.7-4.8,4.7L20.9-111.6L20.9-111.6z M37.3-128.8c-0.3-0.3-0.5-0.6-0.7-1c-0.4,0.4-0.9,0.7-1.4,1H37.3z M27.6-137.4
		c0.1,0,0.2,0,0.4,0h0.1c0-0.3-0.1-0.5-0.1-0.7l0,0c-0.1,0-0.2,0-0.3,0C27.6-138,27.6-137.8,27.6-137.4z"/>
	<path class="st8" d="M27.8-130.1c-5.8,0-8.8-2.2-8.8-6.7c0-1.5,0.4-3,1.3-4.3h-0.7c-0.7,0-1-0.5-1-1.4v-2.5c0-1,0.4-1.5,1.2-1.5
		h16.1c0.9,0,1.4,0.4,1.4,1.3v2.8c0,0.9-0.5,1.3-1.4,1.3h-0.4c0.7,1.3,1,2.7,1,4.3C36.5-132.3,33.6-130.1,27.8-130.1z M46.4-116.2
		c0,1.1-0.6,1.7-1.8,1.7H21c-1,0-1.5-0.4-1.5-1.2v-11.8c0-0.9,0.6-1.3,1.7-1.3h2.4c1.1,0,1.6,0.4,1.6,1.3v1.7h15.5v-1.7
		c0-0.9,0.5-1.3,1.5-1.3h2.6c1.1,0,1.6,0.4,1.6,1.1L46.4-116.2L46.4-116.2z M22.8-147.5c-0.8,0-1.3-0.4-1.3-1.3v-1.9
		c0-0.9,0.5-1.3,1.4-1.3H33c0.8,0,1.3,0.4,1.3,1.2v2c0,0.9-0.4,1.3-1.3,1.3H22.8z M27.9-141.1c-2.3,0-3.4,1.3-3.4,4
		c0,1.8,1.1,2.7,3.4,2.7c2.1,0,3.1-0.9,3.1-2.7C31.1-139.8,30-141.1,27.9-141.1z M40.6-121.5H25.1v2.3h15.5V-121.5z M47.4-143.9
		c0.8,0,1.1,0.4,1.1,1.2v3.4c0,0.8-0.4,1.2-1.1,1.2h-2.3v6.5c0,0.8-0.4,1.3-1.3,1.3h-3.3c-0.8,0-1.3-0.4-1.3-1.3v-18.6
		c0-0.8,0.4-1.3,1.3-1.3h3.2c0.9,0,1.4,0.4,1.4,1.3v6.3H47.4z"/>
</g>
</svg>
