<?xml version="1.0" encoding="utf-8"?>
<!-- Generator: Adobe Illustrator 26.1.0, SVG Export Plug-In . SVG Version: 6.00 Build 0)  -->
<svg version="1.1" id="Layer_1" xmlns="http://www.w3.org/2000/svg" xmlns:xlink="http://www.w3.org/1999/xlink" x="0px" y="0px"
	 viewBox="0 0 300 100" style="enable-background:new 0 0 300 100;" xml:space="preserve">
<style type="text/css">
	.st0{fill:#F07B35;}
	.st1{fill:#FCFCFC;}
</style>
<g>
	<path class="st0" d="M39.6,74c-2.1,0-3.8-0.9-4.8-2.5c-1,1.3-2.7,2-4.5,2h-3.5c-3,0-5.3-1.9-5.7-4.5c-0.4,2.8-2.5,4.5-5.6,4.5h-3.5
		c-3.4,0-5.8-2.4-5.8-5.7C6,51.4,7,37.3,9.3,25.9v-0.3c0.8-2.9,3-4.8,5.9-4.8h3.4c2.4,0,3.8,1,4.5,2c0.4,0.5,1,1.5,1,2.8
		c2.1,0.5,3.9,1.5,5.4,3.2c1-0.9,2.3-1.4,3.8-1.4h0.5v-2c0-3.2,2.4-5.4,5.7-5.4h3.8c3.3,0,5.6,2.3,5.6,5.4v43.4
		c0,2.5-1.8,5.3-5.7,5.3L39.6,74L39.6,74z"/>
	<path class="st1" d="M20.4,26.6c-0.1,0.9-0.3,1.8-0.4,2.7c8.2-1.1,12.2,7.2,12.2,24.9v14c0,1.1-0.6,1.8-1.9,1.8h-3.5
		c-1.3,0-2-0.6-2-1.8V53.7c0-12.4-2-17.7-5.9-16.2c-1.1,10.1-1.6,20.3-1.5,30.4c0,1.3-0.6,1.8-2,1.8h-3.5c-1.3,0-2-0.6-2-1.9
		c-0.1-16.3,0.9-30,3-41.3c0.4-1.3,1.1-2,2.3-2h3.4C20.1,24.7,20.8,25.3,20.4,26.6z M37.8,31.2v-5.8c0-1.1,0.6-1.6,1.9-1.6h3.8
		c1.1,0,1.8,0.5,1.8,1.6v43.4c0,1-0.6,1.5-1.9,1.5h-3.8c-1.1,0-1.8-0.5-1.8-1.6V38.6h-4.2c-1.3,0-1.8-0.5-1.8-1.6V33
		c0-1.1,0.6-1.8,1.8-1.8L37.8,31.2L37.8,31.2z"/>
	<path class="st0" d="M53.1,74c-4,0-5.9-2.8-5.9-5.4v-8.3c0-0.9,0.3-1.8,0.6-2.5c-0.4-0.8-0.6-1.6-0.6-2.7v-1.8c0-1,0.3-2,0.6-2.9
		c-0.5-0.9-0.8-1.9-0.8-3V45c0-2.1,1-3.9,2.5-4.9c-0.5-0.6-1-1.4-1.4-2.1c-0.8-1.6-1.1-3.5-1.1-5.6s0.4-4,1.1-5.7
		c0.9-1.9,2.4-3.4,4.4-4.5c1.8-1,3.9-1.6,6.6-2.1c2.4-0.4,5.6-0.6,9.1-0.6c3.7,0,6.6,0.3,9.1,0.6c2.8,0.5,4.9,1.1,6.6,2.1
		c2,1.1,3.4,2.7,4.3,4.5c0.8,1.6,1.1,3.5,1.1,5.6c0,2.1-0.4,4-1.1,5.7c-0.4,0.8-0.8,1.4-1.4,2c1.5,1,2.5,2.7,2.5,4.7v2.7
		c0,1.1-0.3,2-0.6,2.9c0.5,0.8,0.8,1.8,0.8,2.8v8.2c0,1-0.3,1.8-0.6,2.5c0.4,0.8,0.6,1.6,0.6,2.5v1.6c0,3.4-2.3,5.8-5.6,5.8H53.1
		L53.1,74L53.1,74z"/>
	<path class="st1" d="M68.4,23.3c3.4,0,6.2,0.1,8.5,0.5c2.3,0.4,4,1,5.3,1.8c1.3,0.8,2.3,1.8,2.8,2.9c0.5,1.1,0.8,2.5,0.8,4
		c0,1.5-0.3,2.9-0.8,4s-1.5,2.1-2.8,2.9c-1.4,0.8-3.2,1.4-5.3,1.6c-2.3,0.4-4.9,0.5-8.3,0.5c-3.4,0-6.3-0.1-8.5-0.5
		c-2.3-0.4-4-0.9-5.4-1.6c-1.4-0.8-2.3-1.8-2.8-2.9c-0.5-1.1-0.8-2.5-0.8-4c0-1.5,0.3-2.9,0.8-4c0.5-1.1,1.5-2.1,2.8-2.9
		c1.4-0.8,3.2-1.4,5.4-1.8C62,23.4,64.9,23.3,68.4,23.3z M52.8,56.7c-1.3,0-1.9-0.5-1.9-1.6v-1.8c0-1.3,0.6-1.9,1.8-1.9h11.6v-2
		H52.8c-1.4,0-2-0.6-2-2V45c0-1.4,0.6-2,2-2h30.9c1.1,0,1.8,0.6,1.8,1.8v2.7c0,1.4-0.6,2-1.9,2h-12v2h12c1.3,0,2,0.5,2,1.6v8.2
		c0,1.1-0.6,1.6-2,1.6H58.1v1.9h25.6c1.3,0,1.8,0.5,1.8,1.6v1.6c0,1.4-0.6,2-1.8,2H53c-1.4,0-2.1-0.5-2.1-1.6v-8.3
		c0-1.1,0.6-1.6,2-1.6h25.4v-1.9L52.8,56.7L52.8,56.7z M68.4,35.5c1.9,0,3.4,0,4.7-0.1c1.3-0.1,2.3-0.4,3-0.6c0.8-0.3,1.4-0.6,1.6-1
		c0.4-0.4,0.5-0.9,0.5-1.4c0-0.5-0.1-1-0.5-1.4c-0.3-0.4-0.9-0.8-1.6-1c-0.8-0.3-1.8-0.5-3-0.6s-2.9-0.3-4.8-0.3
		c-1.9,0-3.4,0.1-4.7,0.3c-1.3,0.1-2.3,0.4-3.2,0.6c-0.8,0.3-1.4,0.6-1.6,1c-0.4,0.4-0.5,0.9-0.5,1.4c0,0.5,0.1,1,0.5,1.4
		c0.4,0.4,0.9,0.6,1.6,1c0.8,0.3,1.8,0.5,3.2,0.6C64.9,35.4,66.5,35.5,68.4,35.5z"/>
	<path class="st0" d="M119.2,74c-1.6,0-3-0.5-4.2-1.5c-0.9,0.6-2,0.9-3.3,0.9h-3.3c-3.4,0-5.8-2.3-5.8-5.6v-8.1
		c0-3.2-0.1-5.6-0.4-7.3c-0.3,5.2-0.4,10.4-0.4,15.4c0,3.3-2.4,5.7-5.8,5.7H93c-3.4,0-5.8-2.4-5.8-5.7c-0.1-12.1,0.5-23.1,1.8-32.7
		c-1.4-0.9-2.3-2.5-2.3-4.7v-3.3c0-3.2,2.3-5.4,5.6-5.4h1.4c0.9-1.6,2.5-2.7,4.7-2.7h4.5c2,0,3.7,1,4.5,2.7h4.7
		c0.9,0,1.6,0.1,2.4,0.4c1-1.4,2.8-2.3,4.8-2.3h3.3c3.7,0,6.1,2.3,6.1,5.8v42.5c0,3.4-2.4,5.8-5.9,5.8H119.2L119.2,74z M111.9,35.9
		c0.5,0.6,0.9,1.3,1.3,1.9v-2C112.9,35.9,112.4,35.9,111.9,35.9L111.9,35.9z"/>
	<path class="st1" d="M100.5,32.1l-0.4,3.4c9-1.9,13.5,6.3,13.5,24.7V68c0,1.1-0.6,1.8-1.9,1.8h-3.3c-1.3,0-2-0.6-2-1.8v-8.1
		c0-13.1-2.4-18.3-7.3-15.8c-0.8,8.1-1,16-1,23.9c0,1.3-0.6,1.8-2,1.8H93c-1.3,0-2-0.6-2-1.9c-0.1-13.5,0.6-25.4,2.3-35.7H92
		c-1,0-1.5-0.5-1.5-1.6v-3.3c0-1.1,0.6-1.6,1.8-1.6h4.5v-1.1c0-1,0.5-1.4,1.5-1.4h4.5c0.9,0,1.4,0.5,1.4,1.4v1.1h7.8
		c1.3,0,1.9,0.5,1.9,1.6v3c0,1.3-0.6,1.9-1.9,1.9L100.5,32.1L100.5,32.1z M117.1,25.8c0-1.4,0.8-2,2.1-2h3.3c1.5,0,2.3,0.6,2.3,2
		v42.5c0,1.4-0.8,2-2.1,2h-3.4c-1.4,0-2.1-0.6-2.1-2V25.8L117.1,25.8z"/>
	<path class="st0" d="M132.7,74c-3.4,0-5.9-2.4-5.9-5.8V57.6c0-1.5,0.5-2.8,1.4-3.8c0-0.1-0.1-0.1-0.1-0.3c-0.4-1-1-3.5,1.8-6.1
		l0.1-0.1l0.1-0.1c0.6-0.5,1.3-1,1.8-1.5l0,0c-3.2,0-5.4-2.3-5.4-5.4v-3.3c0-1.4,0.5-2.7,1.3-3.7c-1.1-1-1.8-2.4-1.8-4.2v-3.3
		c0-3.3,2.3-5.4,5.4-5.4h19.4c0.9,0,1.8,0.3,2.5,0.6c1-1,2.4-1.5,4-1.5h3.9c3.3,0,5.7,2.3,5.7,5.6v25.7c0,3.3-2.4,5.6-5.7,5.6h-3.8
		c-3.3,0-5.7-2.3-5.7-5.6v-8.2c-2,4.4-4.8,8.1-8.3,11c-0.6,0.6-1.3,1.1-2,1.6c0.3,0.6,0.4,1.3,0.4,2v2.1h19.9c3.3,0,5.7,2.3,5.7,5.4
		v3.5c0,3.3-2.3,5.6-5.7,5.6L132.7,74L132.7,74z"/>
	<path class="st1" d="M150.8,24.6c1,0,1.4,0.8,1.3,2.1c-1,11-4.8,19.2-11.2,24.5c-1,1.1-2.3,1.8-3.8,1.8h-3.7c-1,0-1.5-0.3-1.8-0.8
		s0.1-1,0.8-1.6c3.4-2.5,5.9-5.3,7.7-8.2h-8.2c-1,0-1.6-0.5-1.6-1.6v-3.3c0-1.1,0.5-1.6,1.6-1.6h10.9c0.3-1,0.4-2.1,0.5-3.3
		c0.1-0.8-0.1-1.3-0.9-1.3h-11c-1,0-1.6-0.5-1.6-1.6v-3.3c0-1.1,0.5-1.6,1.6-1.6h19.4V24.6L150.8,24.6z M161.8,63.6
		c1.3,0,1.9,0.5,1.9,1.6v3.3c0,1.3-0.6,1.8-1.9,1.8h-29c-1.4,0-2.1-0.6-2.1-2V57.6c0-1.3,0.6-1.8,1.9-1.8h3.8c1.1,0,1.8,0.5,1.8,1.6
		v5.9L161.8,63.6L161.8,63.6z M163.1,51.2c0,1.1-0.6,1.8-1.9,1.8h-3.8c-1.3,0-1.9-0.6-1.9-1.8V25.3c0-1,0.6-1.6,1.8-1.6h3.9
		c1.3,0,1.9,0.6,1.9,1.8V51.2z"/>
	<path class="st0" d="M201.3,74c-1.1,0-2.1-0.3-3-0.8c-0.9,0.5-1.9,0.8-3,0.8h-3.3c-2.1,0-3.9-1-4.8-2.8c-5.7,1.1-11.4,1.8-16.8,1.8
		c-3.2,0-5.4-2.1-5.4-5V26.3c0-3.2,2.4-5.4,5.8-5.4h15c0.9,0,1.6,0.1,2.4,0.5c1-0.9,2.3-1.4,3.9-1.4h3.3c1.1,0,2.1,0.3,2.9,0.8
		c0.9-0.5,1.9-0.8,3-0.8h3.3c3.2,0,5.4,2.3,5.4,5.4v43c0,3.3-2.3,5.6-5.6,5.6C204.4,74,201.3,74,201.3,74z M179.8,58.3
		c2.3-0.3,4.5-0.8,6.8-1.4v-22c-0.3,0-0.6,0-0.9,0h-5.9V58.3z"/>
	<path class="st1" d="M187.6,26.4v2.9c0,1.3-0.6,1.9-1.9,1.9H176v31.1c4.8-0.1,9.7-1,14.4-2.7V25.3c0-1.1,0.6-1.6,1.8-1.6h3.3
		c1.1,0,1.6,0.5,1.6,1.5V36h2.5V25.3c0-1.1,0.6-1.6,1.8-1.6h3.3c1.1,0,1.6,0.5,1.6,1.6v43.2c0,1.1-0.6,1.8-1.8,1.8h-3.2
		c-1.1,0-1.8-0.6-1.8-1.8V43.2h-2.5v25.2c0,1.1-0.6,1.8-1.8,1.8H192c-1.1,0-1.6-0.5-1.6-1.6v-1.9c-6.8,1.6-13.5,2.5-20.1,2.5
		c-1,0-1.6-0.4-1.6-1.3V26.3c0-1.1,0.6-1.6,2-1.6h15C187,24.7,187.6,25.2,187.6,26.4z"/>
	<path class="st0" d="M229,74.5c-3.5,0-6.4-0.1-8.8-0.5c-2.7-0.4-4.8-1-6.4-1.9c-2-1-3.5-2.5-4.4-4.3c-0.8-1.6-1.1-3.4-1.1-5.6
		c0-2,0.4-3.9,1.1-5.4c0.3-0.6,0.6-1.3,1.1-1.9c-1.4-1-2.3-2.7-2.3-4.8v-2.3c0-1.1,0.3-2,0.6-2.9c-0.5-0.9-0.6-1.8-0.6-2.8V25.3
		c0-2.7,1.8-5.4,5.8-5.4h30.3c3.3,0,5.6,2.3,5.6,5.6v2.7c0,1.1-0.3,2.1-0.9,3c0.3,0.6,0.4,1.4,0.4,2.1v1.6c0,0.8-0.1,1.4-0.4,2
		c0.5,0.9,0.8,1.9,0.8,2.9v2.5c0,1-0.3,2-0.6,2.9c0.4,0.8,0.6,1.8,0.6,2.8v2.5c0,2-0.9,3.5-2.3,4.5c0.5,0.6,0.9,1.3,1.1,1.9
		c0.8,1.6,1.1,3.4,1.1,5.6c0,2.1-0.4,4-1.3,5.6c-0.9,1.8-2.4,3.2-4.4,4.2c-1.6,0.9-3.8,1.5-6.4,1.9C235.3,74.4,232.4,74.5,229,74.5z
		"/>
	<path class="st1" d="M213.6,52.2c-1.1,0-1.6-0.6-1.6-2v-2.3c0-1.3,0.6-1.9,1.9-2H225V44h-10.9c-1.5,0-2.3-0.6-2.3-1.8V25.3
		c0-1,0.6-1.6,2-1.6h30.3c1.1,0,1.8,0.6,1.8,1.8v2.7c0,1-0.6,1.6-1.8,1.6h-24.9v2h24.6c1,0,1.6,0.5,1.6,1.6V35c0,1-0.5,1.5-1.6,1.5
		h-24.6v1.6h24.9c1.1,0,1.8,0.5,1.8,1.6v2.5c0,1.3-0.6,1.9-1.8,1.9h-11.7v1.9h11.5c1.4,0,2,0.6,2,1.9v2.5c0,1.1-0.6,1.8-1.9,1.8
		h-30.4V52.2L213.6,52.2z M229,53.7c3.4,0,6.2,0.1,8.3,0.5c2.1,0.4,3.9,0.9,5.2,1.5s2.1,1.6,2.7,2.7c0.5,1.1,0.8,2.4,0.8,3.9
		c0,1.5-0.3,2.8-0.9,3.8c-0.5,1-1.5,1.9-2.8,2.7c-1.3,0.6-3,1.1-5.2,1.5c-2.1,0.4-4.9,0.5-8.2,0.5s-6.1-0.1-8.3-0.5
		c-2.3-0.4-3.9-0.9-5.3-1.5c-1.3-0.6-2.3-1.5-2.8-2.7c-0.5-1.1-0.8-2.4-0.8-3.8c0-1.5,0.3-2.8,0.8-3.9c0.5-1.1,1.4-2,2.7-2.7
		s3-1.3,5.3-1.5C222.8,53.8,225.6,53.7,229,53.7z M229,65.1c3.4,0,5.9-0.1,7.4-0.5c1.5-0.4,2.3-1.1,2.3-2.1c0-1.1-0.8-1.9-2.3-2.3
		c-1.5-0.4-4-0.6-7.6-0.6c-3.4,0-5.9,0.3-7.6,0.6c-1.6,0.4-2.4,1.1-2.4,2.3c0,1.1,0.8,1.8,2.4,2.1C223.1,64.8,225.6,65.1,229,65.1z"
		/>
	<path class="st0" d="M254.2,74c-3.9,0-5.7-2.8-5.7-5.3V54c0-1.5,0.6-3.2,1.9-4.2c-2-2.7-2.4-5.7-2.4-7.6c0-1.3,0.1-2.5,0.5-3.7
		c-0.6-0.9-1-2-1-3.5v-3.2c0-3,1.6-4.8,3.7-5.4v-1.8c0-3.2,2.3-5.4,5.6-5.4h12.7c2.3,0,4.2,1.1,4.9,3c0.9-1.4,2.5-2.3,4.5-2.3h4
		c3.3,0,5.6,2.3,5.6,5.4v4.2c2.5,0.4,4.3,2.4,4.3,5.3v4.3c0,2.8-1.8,4.8-4.3,5.2v4.4c0,0.5,0,0.9-0.1,1.3c1.1,1,1.6,2.4,1.6,3.8
		v14.4c0,3.5-2.4,5.9-6.1,5.9L254.2,74L254.2,74z M274.9,52.3c-0.4-0.4-0.6-0.8-0.9-1.3c-0.5,0.5-1.1,0.9-1.8,1.3H274.9z
		 M262.6,41.5c0.1,0,0.3,0,0.5,0h0.1c0-0.4-0.1-0.6-0.1-0.9l0,0c-0.1,0-0.3,0-0.4,0C262.6,40.7,262.6,41,262.6,41.5z"/>
	<path class="st1" d="M262.9,50.7c-7.3,0-11.1-2.8-11.1-8.5c0-1.9,0.5-3.8,1.6-5.4h-0.9c-0.9,0-1.3-0.6-1.3-1.8v-3.2
		c0-1.3,0.5-1.9,1.5-1.9h20.3c1.1,0,1.8,0.5,1.8,1.6v3.5c0,1.1-0.6,1.6-1.8,1.6h-0.5c0.9,1.6,1.3,3.4,1.3,5.4
		C273.8,47.9,270.2,50.7,262.9,50.7z M286.3,68.2c0,1.4-0.8,2.1-2.3,2.1h-29.8c-1.3,0-1.9-0.5-1.9-1.5V54c0-1.1,0.8-1.6,2.1-1.6h3
		c1.4,0,2,0.5,2,1.6v2.1h19.6V54c0-1.1,0.6-1.6,1.9-1.6h3.3c1.4,0,2,0.5,2,1.4V68.2L286.3,68.2z M256.6,28.7c-1,0-1.6-0.5-1.6-1.6
		v-2.4c0-1.1,0.6-1.6,1.8-1.6h12.7c1,0,1.6,0.5,1.6,1.5v2.5c0,1.1-0.5,1.6-1.6,1.6H256.6z M263,36.8c-2.9,0-4.3,1.6-4.3,5
		c0,2.3,1.4,3.4,4.3,3.4c2.7,0,3.9-1.1,3.9-3.4C267,38.4,265.6,36.8,263,36.8z M279,61.5h-19.6v2.9H279V61.5z M287.6,33.3
		c1,0,1.4,0.5,1.4,1.5v4.3c0,1-0.5,1.5-1.4,1.5h-2.9v8.2c0,1-0.5,1.6-1.6,1.6h-4.2c-1,0-1.6-0.5-1.6-1.6V25.3c0-1,0.5-1.6,1.6-1.6h4
		c1.1,0,1.8,0.5,1.8,1.6v8L287.6,33.3L287.6,33.3z"/>
</g>
</svg>
