<?xml version="1.0" encoding="utf-8"?>
<!-- Generator: Adobe Illustrator 26.1.0, SVG Export Plug-In . SVG Version: 6.00 Build 0)  -->
<svg version="1.1" id="Layer_1" xmlns="http://www.w3.org/2000/svg" xmlns:xlink="http://www.w3.org/1999/xlink" x="0px" y="0px"
	 viewBox="0 0 92.6 92.6" style="enable-background:new 0 0 92.6 92.6;" xml:space="preserve">
<style type="text/css">
	.st0{fill:#F39800;}
	.st1{fill:#FFFFFF;}
</style>
<g id="Sq3MNk.tif_00000007416120913633096360000017335878682560450973_">
	<g>
		<path class="st0" d="M46.2,84c-3.3,0-6.2-2.4-6.7-5.7c-0.1-0.7-0.1-1.4-0.1-2c0-9.2,0.1-28.5,0.1-28.5c-2.4,2.4-4.8,4.8-7.3,7.3
			c-1.5,1.5-3.3,2.3-5.2,2.3c-0.5,0-1-0.1-1.6-0.2c-2.4-0.5-4.3-2.2-5.1-4.5c-0.8-2.3-0.4-4.8,1.2-6.7c0.3-0.4,0.6-0.7,0.9-0.9
			c6.2-6.2,12.3-12.4,18.5-18.5c1.7-1.7,3.5-2.5,5.4-2.5c1.9,0,3.7,0.8,5.4,2.5l2.5,2.5c5.4,5.4,10.8,10.8,16.3,16.3
			c1.7,1.7,2.5,4.1,2.1,6.4c-0.4,2.2-1.8,4.1-3.8,5.1c-1,0.5-2,0.7-3.1,0.7c-1.9,0-3.7-0.8-5.1-2.2c-2.4-2.4-4.8-4.8-7.2-7.2
			c0,0-0.1,20.4-0.1,29c0,3.5-2,6.1-5.3,6.9C47.3,84,46.8,84,46.2,84z"/>
		<path class="st0" d="M50.2,40.8c0,0.6,0,1,0,1.3c0,11.6-0.1,23.2-0.1,34.8c0,2.1-1.1,3.5-3,4c-2.1,0.5-4.3-0.9-4.6-3.1
			c-0.1-0.5-0.1-1-0.1-1.5c0-11.5,0.1-23,0.1-34.5c0-0.4,0-0.7,0-1.2c-0.4,0.3-0.6,0.5-0.8,0.7c-3.9,3.9-7.7,7.7-11.6,11.6
			c-1.1,1.1-2.4,1.7-4,1.3c-2.9-0.7-4.2-4.1-2.3-6.5c0.2-0.3,0.4-0.5,0.7-0.7c6.2-6.2,12.3-12.3,18.5-18.5c2.2-2.2,4.4-2.2,6.5,0
			c6.2,6.2,12.5,12.5,18.7,18.7c2.1,2.1,1.7,5.4-0.9,6.7c-1.6,0.8-3.4,0.5-4.8-0.9c-3.8-3.8-7.6-7.6-11.4-11.4
			C50.9,41.4,50.6,41.2,50.2,40.8z"/>
		<path class="st0" d="M35.1,26.1c-2.7,0-5.4,0-8.1,0c-2.4,0-4.6-1.2-5.9-3.2c-1.2-1.9-1.4-4.4-0.4-6.5c1.2-2.6,3.5-4.1,6.6-4.1
			l28.3,0c3.2,0,6.4,0,9.6,0c3.4,0,6.2,2,7,5.1c0.5,2.1,0.1,4.3-1.2,5.9c-1.3,1.7-3.4,2.7-5.6,2.7c-2.6,0-5.2,0-7.8,0L35.1,26.1z"/>
		<path class="st0" d="M46.2,23.1c-6.4,0-12.8,0-19.2,0c-2.9,0-4.8-2.8-3.6-5.4c0.7-1.6,2.1-2.3,3.9-2.3c6.2,0,12.5,0,18.7,0
			c6.4,0,12.8,0,19.2,0c2.1,0,3.6,1.1,4.1,2.9c0.7,2.5-1.2,4.8-3.9,4.9c-6.1,0-12.2,0-18.3,0C46.8,23.1,46.5,23.1,46.2,23.1z"/>
	</g>
</g>
<g id="Sq3MNk.tif">
	<g>
		<path class="st1" d="M50.2,40.8c0,0.6,0,1,0,1.3c0,11.6-0.1,23.2-0.1,34.8c0,2.1-1.1,3.5-3,4c-2.1,0.5-4.3-0.9-4.6-3.1
			c-0.1-0.5-0.1-1-0.1-1.5c0-11.5,0.1-23,0.1-34.5c0-0.4,0-0.7,0-1.2c-0.4,0.3-0.6,0.5-0.8,0.7c-3.9,3.9-7.7,7.7-11.6,11.6
			c-1.1,1.1-2.4,1.7-4,1.3c-2.9-0.7-4.2-4.1-2.3-6.5c0.2-0.3,0.4-0.5,0.7-0.7c6.2-6.2,12.3-12.3,18.5-18.5c2.2-2.2,4.4-2.2,6.5,0
			c6.2,6.2,12.5,12.5,18.7,18.7c2.1,2.1,1.7,5.4-0.9,6.7c-1.6,0.8-3.4,0.5-4.8-0.9c-3.8-3.8-7.6-7.6-11.4-11.4
			C50.9,41.4,50.6,41.2,50.2,40.8z"/>
		<path class="st1" d="M46.2,23.1c-6.4,0-12.8,0-19.2,0c-2.9,0-4.8-2.8-3.6-5.4c0.7-1.6,2.1-2.3,3.9-2.3c6.2,0,12.5,0,18.7,0
			c6.4,0,12.8,0,19.2,0c2.1,0,3.6,1.1,4.1,2.9c0.7,2.5-1.2,4.8-3.9,4.9c-6.1,0-12.2,0-18.3,0C46.8,23.1,46.5,23.1,46.2,23.1z"/>
	</g>
</g>
</svg>
