<svg id="Layer_1" data-name="Layer 1" xmlns="http://www.w3.org/2000/svg" viewBox="0 0 300 100"><defs><style>.cls-1{fill:#f1f1f1;}.cls-2{fill:none;stroke:#f07b35;stroke-miterlimit:10;stroke-width:6px;}.cls-3{fill:#2a2550;}.cls-4{fill:#fe6a08;}.cls-5{fill:#faf8f6;}.cls-6{font-size:36.97px;font-family:YANGJIN;}.cls-6,.cls-8{fill:#fcfcfc;}.cls-7{fill:#f07b35;}</style></defs><path class="cls-1" d="M106.51,53.06l.28-.39c0,.08,0,.19,0,.22a.77.77,0,0,1-.3.11Z"/><path class="cls-2" d="M120.84,51.71c.56,2.12-.59,3.28-2.77,4-4.9,1.59-5.94,5.93-7,10.21-.28,1.12.25,1.52,1.18,2,3.48,1.92,3.87,4,1.31,7.18a27.25,27.25,0,0,1-12.41,8.62,10.88,10.88,0,0,0-4.94,3.84c-2.26,2.71-4.2,6.1-8.24,6.91-4.33.88-7.34-1.22-7.42-5.74-.05-2.63-.69-4.06-3.55-3-1.48.56-2.53.26-3.19-1.14-1-2.08-2.14-2.09-3.83-.69a23.43,23.43,0,0,0-4.52,4.16C63.37,91,58,92,55,90c-2-1.33-2.87.65-4,1.14-3.18,1.37-4.51,1.08-6.41-2.37-2.31-4.18-5.38-8-7.35-12.44-.68-1.53-1.56-.5-1.92.25-2.3,4.8-7,1.68-10.26,3.12-.16.07-.64-.16-.65-.29-.39-3.09-1.77-6.56-.81-9.16a43.11,43.11,0,0,0,2.33-8.42c.31-2.15-.76-4.34-3.78-4.14a17.27,17.27,0,0,1-7.55-1.27C7.81,53.82,9.26,50,12.88,47.05c3.29-2.67,6.15-4.79,5.85-9.5a3.29,3.29,0,0,1,2.4-3.22c1.33-.31,1.89,1.12,2.73,1.86,6.16,5.49,12.29,11,18.49,16.45,3,2.63,6.12,5.07,7.8,8.93,1.14,2.6,3.26,4,6.3,3a6.73,6.73,0,0,1,5.5.73c6.18,3.12,7.3,2.89,12.24-1.83,6.07-5.8,6.07-5.8,13.7-1.89,6.15,3.16,8.78,2.58,12.84-3,.92-1.24,2.07-2.51,2.41-3.94,1.48-6.27,6.32-9.14,11.39-11.9,2.87-1.56,5-.59,5.52,2.54.24,1.53.47,3.06.68,4.59C120.8,50.41,120.8,50.93,120.84,51.71Z"/><path class="cls-2" d="M102.45,50.08a26.45,26.45,0,0,1-1.36,3.58C96.44,62,95.15,62.41,86.51,58.3c-6.74-3.2-7.29-3.12-12.35,2-5.78,5.85-9.73,5.74-15.41-.44A12.72,12.72,0,0,0,54,56.62c-6.9-2.73-11.47-6-17.37-12.73,2.47,0,3.41-1.46,3.86-3.48.18-.84.57-2.07,1.57-2,3.54.3,3-2.45,3.34-4.37.31-1.64.13-3.36.37-5,.6-4.32,2.08-8,7-9.07a6.94,6.94,0,0,0,2.13-.87c3.87-2.37,6.23-1.41,7.4,3,.49,1.83.29,4.53,3.57,3.8S68.06,23,67.44,21c-.36-1.15-.58-2.4.3-3.31a5.31,5.31,0,0,0,1.42-6,2.14,2.14,0,0,1,0-1.15c.51-2.27,6.48-7.09,8.82-7.24a3,3,0,0,1,2.81.86c2.08,2.38,4.8,1.92,7.31,1.19A8.29,8.29,0,0,1,96.6,7.61c2.11,2.1,2.36,5.06,1.56,7.94-.74,2.63-2.1,5.12,2.39,6,1.71.32,2,2.83,1.45,4.72-.25.93-1.24,2.06.3,2.56,3.09,1,1.9,3.19,1.94,5.35.06,4.62-.95,8.5-4.29,12-1.89,2-.62,3.53,2.1,3.55C102.18,49.82,102.31,50,102.45,50.08Z"/><path class="cls-2" d="M57.75,62.59c-3.21,2-5.3,1-6.77-1.89-.32-.62-1.06-1.34-.34-2s1.47-.28,2.18,0A9.49,9.49,0,0,1,57.75,62.59Z"/><path class="cls-2" d="M102.05,49.68c.18-.15.46-.47.51-.44.46.32.2.59-.11.84C102.31,50,102.18,49.82,102.05,49.68Z"/><g id="ueqM2p"><path d="M120.84,52c.56,2.13-.59,3.29-2.77,4-4.9,1.59-5.94,5.92-7,10.2-.28,1.12.25,1.53,1.18,2,3.48,1.92,3.87,4,1.31,7.17A27.27,27.27,0,0,1,101.14,84a10.81,10.81,0,0,0-4.94,3.84C93.94,90.54,92,93.92,88,94.74c-4.33.88-7.34-1.23-7.42-5.74-.05-2.64-.69-4.06-3.55-3-1.48.55-2.53.25-3.19-1.15-1-2.07-2.14-2.09-3.83-.68a23.43,23.43,0,0,0-4.52,4.16c-2.08,2.9-7.45,4-10.46,1.94-2-1.32-2.87.65-4,1.14-3.18,1.37-4.51,1.08-6.41-2.36-2.31-4.18-5.38-8-7.35-12.44-.68-1.53-1.56-.5-1.92.25C33,81.67,28.32,78.55,25,80c-.16.07-.64-.17-.65-.3-.39-3.08-1.77-6.55-.81-9.16a42.83,42.83,0,0,0,2.33-8.41c.31-2.16-.76-4.35-3.78-4.15a17.26,17.26,0,0,1-7.55-1.26c-6.76-2.64-5.31-6.48-1.69-9.42,3.29-2.67,6.15-4.79,5.85-9.5a3.3,3.3,0,0,1,2.4-3.22c1.33-.3,1.89,1.12,2.73,1.87,6.16,5.49,12.29,11,18.49,16.44,3,2.64,6.12,5.08,7.8,8.93,1.14,2.61,3.26,4,6.3,3a6.73,6.73,0,0,1,5.5.73c6.18,3.13,7.3,2.9,12.24-1.82,6.07-5.8,6.07-5.8,13.7-1.89,6.15,3.16,8.78,2.57,12.84-3,.92-1.24,2.07-2.52,2.41-3.94,1.48-6.27,6.32-9.14,11.39-11.9,2.87-1.56,5-.6,5.52,2.54.24,1.53.47,3,.68,4.59C120.8,50.66,120.8,51.18,120.84,52Z"/><path d="M102.45,50.33a27,27,0,0,1-1.36,3.58c-4.65,8.35-5.94,8.74-14.58,4.64-6.74-3.21-7.29-3.12-12.35,2-5.78,5.85-9.73,5.73-15.41-.45A12.72,12.72,0,0,0,54,56.86c-6.9-2.73-11.47-6-17.37-12.72,2.47,0,3.41-1.47,3.86-3.49.18-.84.57-2.07,1.57-2,3.54.3,3-2.45,3.34-4.37.31-1.64.13-3.36.37-5,.6-4.32,2.08-8,7-9.07a6.67,6.67,0,0,0,2.13-.86c3.87-2.38,6.23-1.41,7.4,2.95.49,1.84.29,4.54,3.57,3.8s2.21-2.85,1.59-4.85c-.36-1.15-.58-2.4.3-3.31a5.33,5.33,0,0,0,1.42-6,2.1,2.1,0,0,1,0-1.14c.51-2.27,6.48-7.09,8.82-7.24a3,3,0,0,1,2.81.85c2.08,2.39,4.8,1.93,7.31,1.2A8.27,8.27,0,0,1,96.6,7.86C98.71,10,99,12.92,98.16,15.8c-.74,2.63-2.1,5.12,2.39,6,1.71.32,2,2.83,1.45,4.71-.25.94-1.24,2.06.3,2.57,3.09,1,1.9,3.18,1.94,5.35.06,4.62-.95,8.5-4.29,12-1.89,2-.62,3.54,2.1,3.56C102.18,50.06,102.31,50.2,102.45,50.33Z"/><path class="cls-3" d="M57.75,62.83c-3.21,2-5.3,1-6.77-1.89-.32-.62-1.06-1.33-.34-2s1.47-.29,2.18,0A9.47,9.47,0,0,1,57.75,62.83Z"/><path class="cls-3" d="M102.05,49.93c.18-.16.46-.47.51-.44.46.32.2.59-.11.84C102.31,50.2,102.18,50.06,102.05,49.93Z"/></g><path class="cls-4" d="M3.47,64.46c0-4.3-.55-7.61,1.89-10.64,3.43-4.24,9.09-4.75,12.65-.65a5.36,5.36,0,0,0,4.88,2.09c5.08-.4,7.54,1.24,8.73,6.11.6,2.46,1.92,2.73,3.87,2,5.35-2,9.23-5.25,10.28-11.15.84-4.79.76-9.73,2.47-14.37.42-1.13-.28-1.86-1.08-2.55-2-1.75-2.58-3.84-1.15-6.21s4-2.83,6.44-1.91c1.47.56,2.53.8,3.9-.1a3.52,3.52,0,0,1,2.93,0C63.72,28.5,68.91,29,67.73,36c-.43,2.57,2.07,4.46,4.17,6,2.59,2,2.69,3.08.26,5.18S69,51.91,69,54.93c0,5.2.56,10.43-.28,15.6C66.45,84.67,53.48,95.28,38.9,96.21a42.45,42.45,0,0,1-20.15-3.59A22.11,22.11,0,0,1,6.23,78.27C4.79,73.48,2.64,68.74,3.47,64.46ZM60.34,78.14A12.56,12.56,0,0,0,63,71.26c1.28-9.93.42-19.9.54-29.85,0-3-1.67-4.7-4.62-5.07s-5.18,1.08-5.84,4.13c-.38,1.73-.56,3.5-.82,5.25-.6,4.2-1.09,8.35-3.25,12.25-3,5.36-7,9.12-13,10.59-7.18,1.76-7.75,1.37-8.94-5.67-.27-1.62-1-2.67-2.67-2.88A3,3,0,0,0,21,62a11.55,11.55,0,0,0-.38,1.27c-.47,1.59-1.77,1.93-3.14,1.83s-2-1.23-2-2.59.05-2.66,0-4c-.16-2.05-1.24-3.37-3.4-3.28s-3.14,1.41-3.12,3.52c0,3.66-.23,7.33.1,11C9.63,76.8,12.11,83.31,18.61,87c10.82,6.13,22,5.92,33.17.53,3.44-1.66,4.43-3.84,3.82-7.59-.8-4.89-2.44-6.63-7.35-7.52-1.59-.29-3-.73-2.61-2.65s1.69-2,3.32-1.9c4.77.38,8.15,2.64,10,7.06Z"/><path class="cls-5" d="M60.34,78.14,59,74.93c-1.86-4.42-5.24-6.68-10-7.06-1.63-.13-3,.12-3.32,1.9s1,2.36,2.61,2.65c4.91.89,6.55,2.63,7.35,7.52.61,3.75-.38,5.93-3.82,7.59-11.13,5.39-22.35,5.6-33.17-.53-6.5-3.69-9-10.2-9.64-17.31-.33-3.63-.07-7.3-.1-11,0-2.11,1-3.43,3.12-3.52s3.24,1.23,3.4,3.28c.1,1.32,0,2.66,0,4s.52,2.48,2,2.59,2.67-.24,3.14-1.83A11.55,11.55,0,0,1,21,62a3,3,0,0,1,3.46-2c1.7.21,2.4,1.26,2.67,2.88,1.19,7,1.76,7.43,8.94,5.67,6-1.47,10-5.23,13-10.59,2.16-3.9,2.65-8,3.25-12.25.26-1.75.44-3.52.82-5.25.66-3,2.74-4.51,5.84-4.13s4.66,2,4.62,5.07c-.12,10,.74,19.92-.54,29.85A12.56,12.56,0,0,1,60.34,78.14ZM58.05,45.75c1.42-.18,2.3-.87,2.32-2.35A2.19,2.19,0,0,0,57.86,41c-1.62,0-2.37,1.06-2.28,2.64S56.73,45.64,58.05,45.75Z"/><path class="cls-4" d="M58.05,45.75c-1.32-.11-2.38-.6-2.47-2.12S56.24,41,57.86,41a2.19,2.19,0,0,1,2.51,2.41C60.35,44.88,59.47,45.57,58.05,45.75Z"/><text class="cls-6" transform="translate(72.14 78.14)">서울치킨대통합</text><path class="cls-7" d="M97.72,85.39a4.27,4.27,0,0,1-3.77-2A4.49,4.49,0,0,1,90.36,85H87.59a4.27,4.27,0,0,1-4.5-3.62A4.28,4.28,0,0,1,78.61,85H75.8a4.33,4.33,0,0,1-4.55-4.51c-.1-13,.73-24.18,2.49-33.25l0-.19a4.77,4.77,0,0,1,4.68-3.79h2.73a4.29,4.29,0,0,1,3.56,1.55,3.9,3.9,0,0,1,.83,2.23,8.47,8.47,0,0,1,4.33,2.49,4.44,4.44,0,0,1,3-1.06h.4V46.87a4.24,4.24,0,0,1,4.52-4.33h3a4.15,4.15,0,0,1,4.41,4.25V81.17a4.19,4.19,0,0,1-4.52,4.22Z"/><path class="cls-8" d="M82.53,47.83c-.1.69-.21,1.38-.34,2.07q9.69-1.36,9.69,19.7V80.65c0,.92-.51,1.37-1.52,1.37H87.59c-1,0-1.55-.45-1.55-1.37V69.31q0-14.64-4.66-12.79a213.27,213.27,0,0,0-1.22,24.06c0,1-.52,1.44-1.55,1.44H75.8a1.35,1.35,0,0,1-1.55-1.51q-.15-19.31,2.44-32.68a1.75,1.75,0,0,1,1.77-1.55h2.73C82.33,46.28,82.77,46.79,82.53,47.83Zm13.78,3.66V46.87c0-.89.51-1.33,1.52-1.33h3c.94,0,1.41.42,1.41,1.25V81.17c0,.82-.51,1.22-1.52,1.22h-3c-.94,0-1.41-.44-1.41-1.33V57.33H93c-1,0-1.44-.44-1.44-1.33V52.86a1.22,1.22,0,0,1,1.4-1.37Z"/><path class="cls-7" d="M108.4,85.39c-3.23,0-4.7-2.22-4.7-4.29V74.55a4.47,4.47,0,0,1,.49-2,4.3,4.3,0,0,1-.49-2.06V69a4.91,4.91,0,0,1,.52-2.25,4.94,4.94,0,0,1-.59-2.41V62.43a4.44,4.44,0,0,1,2-3.88,7.53,7.53,0,0,1-1.07-1.67,11.2,11.2,0,0,1,0-8.89,8.12,8.12,0,0,1,3.47-3.6,16.22,16.22,0,0,1,5.22-1.72,44.05,44.05,0,0,1,7.2-.5,44.71,44.71,0,0,1,7.17.48,14.86,14.86,0,0,1,5.23,1.75A8.21,8.21,0,0,1,136.23,48a10.5,10.5,0,0,1,.9,4.43,10.35,10.35,0,0,1-.94,4.46,7.12,7.12,0,0,1-1.06,1.61,4.23,4.23,0,0,1,2,3.73v2.1a5,5,0,0,1-.52,2.3,4.42,4.42,0,0,1,.56,2.21v6.55a4.46,4.46,0,0,1-.47,2,4.46,4.46,0,0,1,.47,2V80.8a4.29,4.29,0,0,1-4.37,4.59Z"/><path class="cls-8" d="M120.45,45.17a41,41,0,0,1,6.67.44,12.16,12.16,0,0,1,4.2,1.37,5.19,5.19,0,0,1,2.18,2.29,7.52,7.52,0,0,1,.63,3.18,7.25,7.25,0,0,1-.65,3.16,5.26,5.26,0,0,1-2.23,2.26A12.94,12.94,0,0,1,127,59.21a40,40,0,0,1-6.58.45,41.39,41.39,0,0,1-6.72-.45,13,13,0,0,1-4.26-1.34,5.1,5.1,0,0,1-2.21-2.26,8.23,8.23,0,0,1,0-6.34A5.26,5.26,0,0,1,109.51,47a13.17,13.17,0,0,1,4.25-1.37A40.08,40.08,0,0,1,120.45,45.17ZM108.18,71.71c-1,0-1.48-.42-1.48-1.26V69c0-1,.47-1.48,1.41-1.48h9.2V65.94h-9.09a1.41,1.41,0,0,1-1.59-1.59V62.43a1.39,1.39,0,0,1,1.55-1.59h24.55a1.24,1.24,0,0,1,1.36,1.41v2.1c0,1.06-.49,1.59-1.48,1.59h-9.5v1.59h9.47c1,0,1.55.45,1.55,1.33v6.55c0,.88-.53,1.33-1.59,1.33H112.36v1.47h20.33q1.44,0,1.44,1.26V80.8c0,1.06-.46,1.59-1.37,1.59H108.4c-1.13,0-1.7-.43-1.7-1.29V74.55c0-.88.54-1.33,1.63-1.33h20.14V71.71Zm12.27-16.82c1.46,0,2.68,0,3.68-.15a11.08,11.08,0,0,0,2.42-.46,3.11,3.11,0,0,0,1.33-.76,1.52,1.52,0,0,0,.41-1.07,1.82,1.82,0,0,0-.37-1.15,2.71,2.71,0,0,0-1.26-.79,10.94,10.94,0,0,0-2.4-.48,36.09,36.09,0,0,0-3.81-.17,34.7,34.7,0,0,0-3.69.17,12.15,12.15,0,0,0-2.46.48,3,3,0,0,0-1.35.79,1.74,1.74,0,0,0-.41,1.15,1.52,1.52,0,0,0,.41,1.07,3.13,3.13,0,0,0,1.35.76,11.63,11.63,0,0,0,2.46.46Q118.28,54.89,120.45,54.89Z"/><path class="cls-7" d="M160.78,85.43a4.77,4.77,0,0,1-3.25-1.17,4.74,4.74,0,0,1-2.62.73h-2.56a4.27,4.27,0,0,1-4.55-4.37V74.19a50.24,50.24,0,0,0-.28-5.8c-.23,4.11-.33,8.18-.3,12.17A4.3,4.3,0,0,1,142.67,85H140a4.33,4.33,0,0,1-4.55-4.51,184.85,184.85,0,0,1,1.4-25.95A4.19,4.19,0,0,1,135,50.9V48.35A4.16,4.16,0,0,1,139.34,44h1.08a4.07,4.07,0,0,1,3.73-2.08h3.58A4,4,0,0,1,151.34,44h3.75a5,5,0,0,1,1.86.33,4.6,4.6,0,0,1,3.83-1.81h2.59a4.41,4.41,0,0,1,4.77,4.55V80.8a4.46,4.46,0,0,1-4.7,4.63Zm-5.73-30.2a12.12,12.12,0,0,1,1,1.51V55.13a5.71,5.71,0,0,1-1,.1Z"/><path class="cls-8" d="M146,52.23l-.33,2.7q10.73-2.3,10.72,19.55v6.14c0,.91-.5,1.37-1.51,1.37h-2.56c-1,0-1.55-.46-1.55-1.37V74.19q0-15.54-5.8-12.54-.85,9.62-.78,18.93c0,1-.52,1.44-1.55,1.44H140a1.35,1.35,0,0,1-1.55-1.51,173.42,173.42,0,0,1,1.77-28.28h-1c-.81,0-1.22-.45-1.22-1.33V48.35A1.19,1.19,0,0,1,139.34,47h3.59v-.93c0-.76.4-1.15,1.22-1.15h3.58a1,1,0,0,1,1.11,1.15V47h6.25c1,0,1.48.44,1.48,1.33v2.36a1.35,1.35,0,0,1-1.52,1.52Zm13.05-5.07c0-1.08.57-1.62,1.7-1.62h2.59c1.18,0,1.77.51,1.77,1.55V80.8c0,1.09-.56,1.63-1.7,1.63h-2.66c-1.13,0-1.7-.54-1.7-1.63Z"/><path class="cls-7" d="M171.47,85.43a4.41,4.41,0,0,1-4.67-4.55V72.49a4.45,4.45,0,0,1,1.09-3l-.1-.21c-.32-.76-.83-2.77,1.44-4.76l.08-.07.08-.06c.5-.38,1-.77,1.42-1.16h0a4.09,4.09,0,0,1-4.26-4.29V56.33a4.4,4.4,0,0,1,1-2.87,4.26,4.26,0,0,1-1.37-3.27V47.57a4.11,4.11,0,0,1,4.25-4.33h15.38a4.16,4.16,0,0,1,2,.52,4.53,4.53,0,0,1,3.24-1.22h3.07a4.23,4.23,0,0,1,4.48,4.36V67.27a4.27,4.27,0,0,1-4.52,4.41h-3a4.25,4.25,0,0,1-4.47-4.41V60.75A25,25,0,0,1,180,69.47a6.69,6.69,0,0,1-1.55,1.27,4.77,4.77,0,0,1,.28,1.63v1.74H194.5A4.21,4.21,0,0,1,199,78.44V81a4.27,4.27,0,0,1-4.47,4.44Z"/><path class="cls-8" d="M185.77,46.24c.79,0,1.14.55,1,1.66Q185.63,61,177.9,67.31a3.78,3.78,0,0,1-3,1.37H172c-.77,0-1.23-.19-1.39-.58s.06-.83.65-1.35a23.56,23.56,0,0,0,6.1-6.54H170.8a1.13,1.13,0,0,1-1.26-1.29V56.33c0-.89.42-1.33,1.26-1.33h8.61a14.65,14.65,0,0,0,.37-2.55c.1-.64-.14-1-.74-1h-8.65c-.83,0-1.25-.43-1.25-1.3V47.57c0-.89.42-1.33,1.25-1.33Zm8.73,30.87c1,0,1.47.44,1.47,1.33V81a1.29,1.29,0,0,1-1.47,1.44h-23c-1.11,0-1.67-.52-1.67-1.55V72.49c0-1,.51-1.45,1.52-1.45h3c.94,0,1.41.45,1.41,1.33v4.74Zm1.11-9.84c0,.94-.51,1.41-1.52,1.41h-3q-1.47,0-1.47-1.41V46.79c0-.83.48-1.25,1.44-1.25h3.07c1,0,1.48.45,1.48,1.36Z"/><path class="cls-7" d="M225.84,85.39a4.62,4.62,0,0,1-2.39-.62,4.57,4.57,0,0,1-2.37.62h-2.63a4.11,4.11,0,0,1-3.81-2.21,67.34,67.34,0,0,1-13.34,1.36,4,4,0,0,1-4.26-4V47.61a4.29,4.29,0,0,1,4.63-4.33h11.94a4.88,4.88,0,0,1,1.9.37,4.39,4.39,0,0,1,3.05-1.11h2.59a4.63,4.63,0,0,1,2.33.59,4.72,4.72,0,0,1,2.36-.59h2.59a4.11,4.11,0,0,1,4.33,4.25V81a4.21,4.21,0,0,1-4.4,4.4ZM208.77,72.87a34.24,34.24,0,0,0,5.42-1.09V54.41a5.12,5.12,0,0,1-.69,0h-4.73Z"/><path class="cls-8" d="M215,47.68v2.26a1.33,1.33,0,0,1-1.51,1.51h-7.73V76.07A36.09,36.09,0,0,0,217.19,74V46.83c0-.86.46-1.29,1.37-1.29h2.59c.86,0,1.29.4,1.29,1.22v8.61h2V46.83c0-.86.47-1.29,1.4-1.29h2.59c.89,0,1.33.42,1.33,1.25V81a1.24,1.24,0,0,1-1.4,1.4h-2.52a1.22,1.22,0,0,1-1.4-1.37V61h-2V81a1.2,1.2,0,0,1-1.36,1.37h-2.63a1.16,1.16,0,0,1-1.29-1.33V79.54a65.4,65.4,0,0,1-15.86,2c-.84,0-1.26-.34-1.26-1V47.61c0-.89.54-1.33,1.63-1.33h11.94A1.24,1.24,0,0,1,215,47.68Z"/><path class="cls-7" d="M247.8,85.8a49.29,49.29,0,0,1-7-.42,16.64,16.64,0,0,1-5.1-1.48,7.66,7.66,0,0,1-3.51-3.42,9.82,9.82,0,0,1-.94-4.37,10.24,10.24,0,0,1,.88-4.35,6.76,6.76,0,0,1,.9-1.45,4.55,4.55,0,0,1-1.78-3.79V64.77a4.83,4.83,0,0,1,.54-2.28,4.56,4.56,0,0,1-.54-2.17V46.79a4.25,4.25,0,0,1,4.63-4.25h24a4.19,4.19,0,0,1,4.4,4.36V49a4.46,4.46,0,0,1-.66,2.4,4.91,4.91,0,0,1,.29,1.71v1.29a4.72,4.72,0,0,1-.26,1.58,4.35,4.35,0,0,1,.63,2.34v2a4.79,4.79,0,0,1-.52,2.25,4.76,4.76,0,0,1,.52,2.23v2a4.22,4.22,0,0,1-1.79,3.59,6.77,6.77,0,0,1,.93,1.49,10.49,10.49,0,0,1,.86,4.35,9.41,9.41,0,0,1-1,4.44,8,8,0,0,1-3.5,3.32,16.62,16.62,0,0,1-5.06,1.48A48.08,48.08,0,0,1,247.8,85.8Zm-5.48-8.5"/><path class="cls-8" d="M235.57,68.09c-.89,0-1.34-.53-1.34-1.57V64.77a1.4,1.4,0,0,1,1.52-1.56h8.83V61.73H236c-1.18,0-1.78-.47-1.78-1.41V46.79c0-.83.55-1.25,1.63-1.25h24a1.22,1.22,0,0,1,1.4,1.36V49c0,.84-.45,1.26-1.36,1.26H240.19v1.55h19.48c.83,0,1.25.41,1.25,1.3v1.29c0,.79-.42,1.18-1.25,1.18H240.19V57h19.74c.91,0,1.36.42,1.36,1.26v2c0,1-.45,1.48-1.36,1.48h-9.28v1.48h9c1.06,0,1.59.51,1.59,1.52v2c0,.92-.5,1.38-1.51,1.38Zm12.23,1.22a48,48,0,0,1,6.64.38,13,13,0,0,1,4.14,1.22A4.68,4.68,0,0,1,260.7,73a7.33,7.33,0,0,1,.59,3.1,6.47,6.47,0,0,1-.66,3,5,5,0,0,1-2.22,2,13.62,13.62,0,0,1-4.14,1.18,44.62,44.62,0,0,1-6.47.39,46,46,0,0,1-6.58-.39A13.82,13.82,0,0,1,237,81.23a4.73,4.73,0,0,1-2.18-2.07,6.83,6.83,0,0,1-.63-3,7.22,7.22,0,0,1,.6-3.09A4.69,4.69,0,0,1,237,70.91a12.9,12.9,0,0,1,4.16-1.22A48.74,48.74,0,0,1,247.8,69.31Zm0,9a27.3,27.3,0,0,0,5.89-.45c1.22-.29,1.83-.87,1.83-1.73s-.6-1.49-1.81-1.8a27.41,27.41,0,0,0-5.95-.46,28.05,28.05,0,0,0-6,.46q-1.89.47-1.89,1.8c0,.86.64,1.44,1.91,1.73A28.49,28.49,0,0,0,247.84,78.29Z"/><path class="cls-7" d="M267.72,85.43a4.14,4.14,0,0,1-4.47-4.18V69.53a4.25,4.25,0,0,1,1.51-3.31,9.71,9.71,0,0,1-1.92-6,10.69,10.69,0,0,1,.41-2.93,4.79,4.79,0,0,1-.82-2.84V52a4.16,4.16,0,0,1,2.89-4.28V46.24a4.18,4.18,0,0,1,4.4-4.33h10.09a4,4,0,0,1,3.91,2.43,4.23,4.23,0,0,1,3.63-1.8h3.18a4.14,4.14,0,0,1,4.41,4.25v3.35a4,4,0,0,1,3.36,4.16v3.36a4,4,0,0,1-3.36,4.13v3.52a4.76,4.76,0,0,1-.11,1,4,4,0,0,1,1.33,3V80.77a4.49,4.49,0,0,1-4.81,4.66Zm16.37-17.2a3.88,3.88,0,0,1-.66-1,8.75,8.75,0,0,1-1.39,1Zm-9.73-8.67.39,0h.1a4.16,4.16,0,0,0-.09-.66h0l-.3,0A3.07,3.07,0,0,0,274.36,59.56Z"/><path class="cls-8" d="M274.6,66.94q-8.76,0-8.76-6.69a7.76,7.76,0,0,1,1.33-4.33h-.74c-.66,0-1-.48-1-1.44V52c0-1,.4-1.48,1.19-1.48H282.7c.93,0,1.4.43,1.4,1.29v2.85c0,.86-.46,1.29-1.37,1.29h-.44a9.07,9.07,0,0,1,1,4.33Q283.29,66.91,274.6,66.94Zm18.56,13.83c0,1.1-.61,1.66-1.81,1.66H267.72c-1,0-1.47-.4-1.47-1.18V69.53c0-.89.55-1.33,1.66-1.33h2.37c1.05,0,1.59.44,1.59,1.33v1.7h15.52v-1.7c0-.89.51-1.33,1.52-1.33h2.62c1.09,0,1.63.38,1.63,1.14ZM269.57,49.46c-.83,0-1.25-.45-1.25-1.34V46.24c0-.89.46-1.33,1.4-1.33h10.09c.84,0,1.26.4,1.26,1.22v2a1.18,1.18,0,0,1-1.33,1.34Zm5.18,6.46q-3.4,0-3.4,4,0,2.7,3.4,2.7c2.07,0,3.1-.9,3.1-2.7Q277.85,55.92,274.75,55.92Zm12.64,19.56H271.87v2.29h15.52Zm6.77-22.4c.76,0,1.14.4,1.14,1.22v3.36c0,.79-.37,1.18-1.11,1.18h-2.25v6.47c0,.84-.45,1.26-1.33,1.26h-3.33c-.84,0-1.26-.44-1.26-1.33V46.79c0-.83.45-1.25,1.33-1.25h3.18c.94,0,1.41.42,1.41,1.25v6.29Z"/></svg>